<?xml version="1.0" encoding="iso-8859-1"?>
<!-- Generator: Adobe Illustrator 19.0.0, SVG Export Plug-In . SVG Version: 6.00 Build 0)  -->
<svg version="1.1" id="Capa_1" xmlns="http://www.w3.org/2000/svg" xmlns:xlink="http://www.w3.org/1999/xlink" x="0px" y="0px"
	 viewBox="0 0 424.229 424.229" style="enable-background:new 0 0 424.229 424.229;" xml:space="preserve">
<path style="fill:#1185E0;" d="M365.192,424.229H59.037c-8.882,0-15.673-6.792-15.673-15.673V15.673C43.363,6.792,50.155,0,59.037,0
	h306.155c8.882,0,15.673,6.792,15.673,15.673v392.882C380.865,417.437,374.073,424.229,365.192,424.229z M74.71,392.882h274.808
	V31.347H74.71V392.882z"/>
<g>
	<path style="fill:#4DCFE0;" d="M301.453,175.543h-179.2c-8.882,0-15.673-6.792-15.673-15.673V78.89
		c0-8.882,6.792-15.673,15.673-15.673h179.2c8.882,0,15.673,6.792,15.673,15.673v80.98
		C317.126,168.751,310.335,175.543,301.453,175.543z M137.927,144.196H285.78V94.563H137.927V144.196z"/>
	<path style="fill:#4DCFE0;" d="M295.706,245.029H122.253c-8.882,0-15.673-6.792-15.673-15.673c0-8.882,6.792-15.673,15.673-15.673
		h173.453c8.882,0,15.673,6.792,15.673,15.673C311.38,238.237,304.588,245.029,295.706,245.029z"/>
	<path style="fill:#4DCFE0;" d="M301.975,303.02H122.253c-8.882,0-15.673-6.792-15.673-15.673c0-8.882,6.792-15.673,15.673-15.673
		h179.722c8.882,0,15.673,6.792,15.673,15.673S310.857,303.02,301.975,303.02z"/>
	<path style="fill:#4DCFE0;" d="M301.975,361.012H122.253c-8.882,0-15.673-6.792-15.673-15.673s6.792-15.673,15.673-15.673h179.722
		c8.882,0,15.673,6.792,15.673,15.673S310.857,361.012,301.975,361.012z"/>
</g>
<g>
</g>
<g>
</g>
<g>
</g>
<g>
</g>
<g>
</g>
<g>
</g>
<g>
</g>
<g>
</g>
<g>
</g>
<g>
</g>
<g>
</g>
<g>
</g>
<g>
</g>
<g>
</g>
<g>
</g>
</svg>
